<mxfile host="65bd71144e">
    <diagram id="tSeh5KfEuLWa-11qsEF4" name="Page-1">
        <mxGraphModel dx="603" dy="450" grid="1" gridSize="10" guides="1" tooltips="1" connect="1" arrows="1" fold="1" page="1" pageScale="1" pageWidth="827" pageHeight="1169" math="0" shadow="0">
            <root>
                <mxCell id="0"/>
                <mxCell id="1" parent="0"/>
                <mxCell id="2" value="Interfaz Web" style="shape=umlLifeline;perimeter=lifelinePerimeter;whiteSpace=wrap;html=1;container=1;collapsible=0;recursiveResize=0;outlineConnect=0;rounded=1;shadow=0;comic=0;labelBackgroundColor=none;strokeWidth=1;fontFamily=Verdana;fontSize=12;align=center;" vertex="1" parent="1">
                    <mxGeometry x="160" y="70" width="100" height="340" as="geometry"/>
                </mxCell>
                <mxCell id="3" value="" style="html=1;points=[];perimeter=orthogonalPerimeter;rounded=0;shadow=0;comic=0;labelBackgroundColor=none;strokeWidth=1;fontFamily=Verdana;fontSize=12;align=center;" vertex="1" parent="2">
                    <mxGeometry x="45" y="100" width="10" height="230" as="geometry"/>
                </mxCell>
                <mxCell id="4" value="Backend" style="shape=umlLifeline;perimeter=lifelinePerimeter;whiteSpace=wrap;html=1;container=1;collapsible=0;recursiveResize=0;outlineConnect=0;rounded=1;shadow=0;comic=0;labelBackgroundColor=none;strokeWidth=1;fontFamily=Verdana;fontSize=12;align=center;" vertex="1" parent="1">
                    <mxGeometry x="320" y="70" width="100" height="340" as="geometry"/>
                </mxCell>
                <mxCell id="5" value="" style="html=1;points=[];perimeter=orthogonalPerimeter;rounded=0;shadow=0;comic=0;labelBackgroundColor=none;strokeWidth=1;fontFamily=Verdana;fontSize=12;align=center;" vertex="1" parent="4">
                    <mxGeometry x="45" y="120" width="10" height="200" as="geometry"/>
                </mxCell>
                <mxCell id="6" value="API" style="shape=umlLifeline;perimeter=lifelinePerimeter;whiteSpace=wrap;html=1;container=1;collapsible=0;recursiveResize=0;outlineConnect=0;rounded=1;shadow=0;comic=0;labelBackgroundColor=none;strokeWidth=1;fontFamily=Verdana;fontSize=12;align=center;" vertex="1" parent="1">
                    <mxGeometry x="460" y="70" width="100" height="340" as="geometry"/>
                </mxCell>
                <mxCell id="7" value="&lt;span style=&quot;color: rgb(0, 0, 0);&quot;&gt;Entidad Base de datos&lt;/span&gt;" style="shape=umlLifeline;perimeter=lifelinePerimeter;whiteSpace=wrap;html=1;container=1;collapsible=0;recursiveResize=0;outlineConnect=0;rounded=1;shadow=0;comic=0;labelBackgroundColor=none;strokeWidth=1;fontFamily=Verdana;fontSize=12;align=center;" vertex="1" parent="1">
                    <mxGeometry x="600" y="70" width="100" height="340" as="geometry"/>
                </mxCell>
                <mxCell id="14" value="" style="html=1;points=[];perimeter=orthogonalPerimeter;rounded=0;shadow=0;comic=0;labelBackgroundColor=none;strokeWidth=1;fontFamily=Verdana;fontSize=12;align=center;" vertex="1" parent="7">
                    <mxGeometry x="45" y="230" width="10" height="20" as="geometry"/>
                </mxCell>
                <mxCell id="41" value="" style="html=1;points=[];perimeter=orthogonalPerimeter;rounded=0;shadow=0;comic=0;labelBackgroundColor=none;strokeWidth=1;fontFamily=Verdana;fontSize=12;align=center;" vertex="1" parent="7">
                    <mxGeometry x="45" y="264" width="10" height="20" as="geometry"/>
                </mxCell>
                <mxCell id="10" value="Usuario" style="shape=umlLifeline;perimeter=lifelinePerimeter;container=0;collapsible=0;recursiveResize=0;outlineConnect=0;rounded=1;shadow=0;comic=0;labelBackgroundColor=none;strokeWidth=1;fontFamily=Verdana;fontSize=12;align=center;fillColor=default;strokeColor=default;allowArrows=1;expand=1;editable=1;movable=1;resizable=1;rotatable=1;deletable=1;locked=0;connectable=1;backgroundOutline=0;autosize=0;fontColor=none;noLabel=1;whiteSpace=wrap;html=1;" vertex="1" parent="1">
                    <mxGeometry x="65" y="90" width="10" height="335" as="geometry"/>
                </mxCell>
                <mxCell id="12" value="" style="html=1;points=[];perimeter=orthogonalPerimeter;rounded=0;shadow=0;comic=0;labelBackgroundColor=none;strokeWidth=1;fontFamily=Verdana;fontSize=12;align=center;" vertex="1" parent="1">
                    <mxGeometry x="505" y="210" width="10" height="80" as="geometry"/>
                </mxCell>
                <mxCell id="13" value="Pide el modelo" style="html=1;verticalAlign=bottom;endArrow=block;labelBackgroundColor=none;fontFamily=Verdana;fontSize=12;edgeStyle=elbowEdgeStyle;elbow=vertical;" edge="1" parent="1" source="5" target="12">
                    <mxGeometry relative="1" as="geometry">
                        <mxPoint x="430" y="210" as="sourcePoint"/>
                        <Array as="points">
                            <mxPoint x="380" y="210"/>
                        </Array>
                    </mxGeometry>
                </mxCell>
                <mxCell id="25" value="Solicita nuevo modelo" style="html=1;verticalAlign=bottom;endArrow=block;entryX=0;entryY=0;labelBackgroundColor=none;fontFamily=Verdana;fontSize=12;edgeStyle=elbowEdgeStyle;elbow=vertical;" edge="1" parent="1" source="11" target="3">
                    <mxGeometry relative="1" as="geometry">
                        <mxPoint x="140" y="180" as="sourcePoint"/>
                    </mxGeometry>
                </mxCell>
                <mxCell id="26" value="Solicita modelo" style="html=1;verticalAlign=bottom;endArrow=block;entryX=0;entryY=0;labelBackgroundColor=none;fontFamily=Verdana;fontSize=12;edgeStyle=elbowEdgeStyle;elbow=vertical;" edge="1" parent="1" source="3" target="5">
                    <mxGeometry relative="1" as="geometry">
                        <mxPoint x="290" y="190" as="sourcePoint"/>
                    </mxGeometry>
                </mxCell>
                <mxCell id="39" value="Envía el modelo" style="html=1;verticalAlign=bottom;endArrow=block;labelBackgroundColor=none;fontFamily=Verdana;fontSize=12;elbow=vertical;exitX=0.114;exitY=0.964;exitDx=0;exitDy=0;exitPerimeter=0;entryX=0.914;entryY=0.477;entryDx=0;entryDy=0;entryPerimeter=0;dashed=1;" edge="1" parent="1" source="12" target="5">
                    <mxGeometry relative="1" as="geometry">
                        <mxPoint x="450" y="290" as="sourcePoint"/>
                        <mxPoint x="515" y="330" as="targetPoint"/>
                    </mxGeometry>
                </mxCell>
                <mxCell id="40" value="Guarda el modelo" style="html=1;verticalAlign=bottom;endArrow=block;labelBackgroundColor=none;fontFamily=Verdana;fontSize=12;elbow=vertical;entryX=0.02;entryY=0.255;entryDx=0;entryDy=0;entryPerimeter=0;exitX=0.933;exitY=0.567;exitDx=0;exitDy=0;exitPerimeter=0;" edge="1" parent="1" source="5" target="14">
                    <mxGeometry relative="1" as="geometry">
                        <mxPoint x="376" y="300" as="sourcePoint"/>
                        <mxPoint x="640" y="310" as="targetPoint"/>
                    </mxGeometry>
                </mxCell>
                <mxCell id="42" value="Consulta datos de los modelos" style="html=1;verticalAlign=bottom;endArrow=block;labelBackgroundColor=none;fontFamily=Verdana;fontSize=12;elbow=vertical;exitX=1;exitY=0.713;exitDx=0;exitDy=0;exitPerimeter=0;entryX=-0.14;entryY=-0.05;entryDx=0;entryDy=0;entryPerimeter=0;" edge="1" parent="1" source="5" target="41">
                    <mxGeometry relative="1" as="geometry">
                        <mxPoint x="380" y="330" as="sourcePoint"/>
                        <mxPoint x="515" y="330" as="targetPoint"/>
                    </mxGeometry>
                </mxCell>
                <mxCell id="43" value="Devuelve datos de los modelos&amp;nbsp;" style="html=1;verticalAlign=bottom;endArrow=block;labelBackgroundColor=none;fontFamily=Verdana;fontSize=12;elbow=vertical;exitX=-0.18;exitY=0.97;exitDx=0;exitDy=0;exitPerimeter=0;entryX=0.94;entryY=0.809;entryDx=0;entryDy=0;entryPerimeter=0;dashed=1;" edge="1" parent="1" source="41" target="5">
                    <mxGeometry relative="1" as="geometry">
                        <mxPoint x="385" y="343" as="sourcePoint"/>
                        <mxPoint x="654" y="343" as="targetPoint"/>
                    </mxGeometry>
                </mxCell>
                <mxCell id="44" value="Envía los datos&amp;nbsp;&lt;div&gt;a la interfaz&lt;/div&gt;" style="html=1;verticalAlign=bottom;endArrow=block;labelBackgroundColor=none;fontFamily=Verdana;fontSize=12;elbow=vertical;entryX=1.133;entryY=0.946;entryDx=0;entryDy=0;entryPerimeter=0;exitX=0.067;exitY=0.99;exitDx=0;exitDy=0;exitPerimeter=0;dashed=1;" edge="1" parent="1" source="5" target="3">
                    <mxGeometry relative="1" as="geometry">
                        <mxPoint x="359" y="391" as="sourcePoint"/>
                        <mxPoint x="90" y="390" as="targetPoint"/>
                    </mxGeometry>
                </mxCell>
                <mxCell id="45" value="Visualiza" style="html=1;verticalAlign=bottom;endArrow=block;labelBackgroundColor=none;fontFamily=Verdana;fontSize=12;elbow=vertical;exitX=-0.229;exitY=0.964;exitDx=0;exitDy=0;exitPerimeter=0;entryX=1.029;entryY=0.923;entryDx=0;entryDy=0;entryPerimeter=0;dashed=1;" edge="1" parent="1" source="3" target="11">
                    <mxGeometry relative="1" as="geometry">
                        <mxPoint x="200" y="390" as="sourcePoint"/>
                        <mxPoint x="80" y="392" as="targetPoint"/>
                    </mxGeometry>
                </mxCell>
                <mxCell id="11" value="" style="html=1;points=[];perimeter=orthogonalPerimeter;rounded=0;shadow=0;comic=0;labelBackgroundColor=none;strokeWidth=1;fontFamily=Verdana;fontSize=12;align=center;" vertex="1" parent="1">
                    <mxGeometry x="65" y="170" width="10" height="240" as="geometry"/>
                </mxCell>
                <mxCell id="48" value="" style="rounded=0;whiteSpace=wrap;html=1;fontColor=none;noLabel=1;strokeColor=none;" vertex="1" parent="1">
                    <mxGeometry x="60" y="70" width="20" height="70" as="geometry"/>
                </mxCell>
                <mxCell id="47" value="Usuario" style="shape=umlActor;verticalLabelPosition=bottom;verticalAlign=top;html=1;outlineConnect=0;perimeterSpacing=20;labelBackgroundColor=default;fillColor=default;gradientColor=none;shadow=0;" vertex="1" parent="1">
                    <mxGeometry x="55" y="70" width="30" height="60" as="geometry"/>
                </mxCell>
            </root>
        </mxGraphModel>
    </diagram>
</mxfile>